#!OML:ASF F:\VICON\USERDATA\INSTALL\rory3\rory3.ASF
:FULLY-SPECIFIED
:DEGREES
100
root 0.7892222335540197 17.83476773553766 37.120928349249354 -4.314222836298943 -1.8225870765619296 -1.8188292135549387
lfemur -0.07163481047141218 -1.474856102588546 -18.348993423624332
ltibia 53.93127546883819
lfoot -9.835872468050056 -3.4774403050734843
ltoes -5.9129983166724704
rfemur -4.070554495766193 3.4092349210557606 24.91144400491742
rtibia 41.840743266316224
rfoot -23.584617746108893 -12.44235045846376
rtoes -7.6127190686593975
lowerback 9.770956973615405 0.3629021988572747 1.9607271937927098
upperback 0.24202201046299993 0.8373991941172887 1.7340534071476812
thorax -5.3257741978827235 0.4154882353901443 0.6115095945915464
lowerneck -16.3273693333877 -2.986212014308246 -1.4919876936216117
upperneck 21.313458062598514 -3.8243654325654193 0.1062505790358873
head 9.448712300040556 -1.8987137052964567 -0.24344784886584872
lclavicle -3.616362944094862e-16 5.803562888473098e-16
lhumerus -33.52605001388466 7.915527952440466 81.1280654642553
lradius 21.01804815240998
lwrist 8.178953509056939
lhand -29.01075662815264 21.452503314041195
lfingers 7.12502
lthumb -2.726341493979467 50.887599386122254
rclavicle -3.6163629434513897e-16 5.80356288890876e-16
rhumerus -28.906142121251044 -18.029987266064282 -78.41275401960519
rradius 32.785923832970965
rwrist 2.8420599833108753
rhand -18.05601219691808 21.486745464571047
rfingers 7.12502
rthumb 8.330757794440586 -6.51762151152923
101
root 0.7692364059209377 17.832396576515418 37.35377255383836 -4.089435501030064 -1.591887973115722 -2.1553976299987365
lfemur -0.5520307555849566 -1.1895169394163583 -17.77207662789568
ltibia 54.15071493906506
lfoot -9.959910244342995 -3.2899265308751353
ltoes -5.889583688962465
rfemur -3.9562256215782536 3.3498891335874124 25.08273542854214
rtibia 42.855708743820315
rfoot -23.63676210276114 -12.544836266416768
rtoes -8.355309764590473
lowerback 9.775937625528973 0.41773430796234023 2.2100523234645646
upperback 0.2442448427582382 0.9486167636459986 1.7189507189305084
thorax -5.379037984187562 0.4595678314687345 0.4890697413370885
lowerneck -16.36120425170636 -2.997891439502477 -1.424439038017834
upperneck 21.27945490650471 -3.8478968891070537 0.1115083291555623
head 9.46920976224437 -1.9044157201667904 -0.2700548991451275
lclavicle -3.616362944112725e-16 5.8035628884585e-16
lhumerus -32.94727313538087 8.121366372124436 81.2307403660544
lradius 21.157469471098402
lwrist 7.810148908397899
lhand -28.87093246313569 21.544305703675825
lfingers 7.12502
lthumb -2.5175385552285534 51.21577276655426
rclavicle -3.616362943510518e-16 5.803562888866498e-16
rhumerus -28.794032441988882 -18.08424276234765 -78.62948521821602
rradius 32.877553943523665
rwrist 2.9807954499847957
rhand -18.058428487993677 21.342470162158776
rfingers 7.12502
rthumb 8.329668395295075 -6.752685981045905
102
root 0.7666377407515701 17.836186977528993 37.37221159006831 -3.8546089827945744 -1.3357392163876447 -2.368614828590471
lfemur -0.45638298341939176 -1.1556597972462466 -17.458428954712602
ltibia 53.95917755662692
lfoot -10.20676155259278 -3.4016045643993085
ltoes -2.1070494647268525
rfemur -3.858698056450546 3.278803586330905 25.13080322974587
rtibia 43.55551574007064
rfoot -23.29132699169216 -12.160858317405976
rtoes -8.085649866344003
lowerback 9.725339829489608 0.40942865981347426 2.339821183651196
upperback 0.22784531530756896 0.967713433547275 1.7236050863462404
thorax -5.4124855468764705 0.4734146409732113 0.4052875486792338
lowerneck -16.38659967523586 -3.0080088544681196 -1.3646295201010374
upperneck 21.237778824152315 -3.8706520089335252 0.12693449555334368
head 9.471499739776236 -1.9116463677645619 -0.292859117607902
lclavicle -3.6163629440873936e-16 5.80356288847247e-16
lhumerus -33.36301249920356 7.38429622848664 80.94384329910224
lradius 21.462305332004142
lwrist 7.50786093142562
lhand -28.699704956985755 21.028736892556577
lfingers 7.12502
lthumb -2.3347671202296643 50.81227903254584
rclavicle -3.616362943466392e-16 5.803562888892308e-16
rhumerus -28.695895377184723 -18.107537405918393 -78.89605046753718
rradius 32.991012823816135
rwrist 3.085902195326903
rhand -18.000984909335074 21.302977713202065
rfingers 7.12502
rthumb 8.400453680193891 -6.862515564205866
103
root 0.7433966526260283 17.83145038817667 37.403825074103786 -3.8563177017343815 -1.4007939226992896 -2.2430529772771104
lfemur -0.45593937433184983 -1.1088439119385498 -17.61644159131663
ltibia 53.7485210125068
lfoot -10.397157436498247 -3.612682760305444
ltoes -3.8375640884952142
rfemur -4.006637150893873 3.3616889651519366 24.93583677513674
rtibia 44.31029981804711
rfoot -22.615417100621876 -11.49894877366538
rtoes -7.24619328017297
lowerback 9.750431904698056 0.43727064819029926 2.133525615317849
upperback 0.23316599613800304 0.9655685181388778 1.6800642271414787
thorax -5.452722313391799 0.4599422158236238 0.37166845044013086
lowerneck -16.38478727494834 -3.012800992062835 -1.3257386800671602
upperneck 21.163392140096832 -3.88220061019811 0.18741160470857582
head 9.449185857878195 -1.913708134011855 -0.2709470224237223
lclavicle -3.616362944093667e-16 5.803562888465565e-16
lhumerus -32.782535299456306 7.488894462765488 80.87383082875992
lradius 21.73156471333109
lwrist 7.216836522115359
lhand -28.705025274411273 20.93643362961507
lfingers 7.12502
lthumb -2.322479382843978 50.757617603838284
rclavicle -3.6163629434524177e-16 5.80356288889896e-16
rhumerus -28.699586017060344 -18.021236157792416 -78.96498417351107
rradius 33.064443245571454
rwrist 2.9351466891936226
rhand -17.983907808559923 21.229716922878062
rfingers 7.12502
rthumb 8.443536307554822 -6.939870492014606
